<?xml version="1.0" encoding="UTF-8"?>
<!DOCTYPE svg PUBLIC "-//W3C//DTD SVG 1.1//EN" "http://www.w3.org/Graphics/SVG/1.1/DTD/svg11.dtd">
<!-- Creator: CorelDRAW X7 -->
<svg xmlns="http://www.w3.org/2000/svg" xml:space="preserve" width="2550px" height="122px" version="1.1" style="shape-rendering:geometricPrecision; text-rendering:geometricPrecision; image-rendering:optimizeQuality; fill-rule:evenodd; clip-rule:evenodd"
viewBox="0 0 2555 122"
 xmlns:xlink="http://www.w3.org/1999/xlink">
 <defs>
  <style type="text/css">
   <![CDATA[
    .str0 {stroke:#3E4095;stroke-width:0.901621}
    .fil4 {fill:none;fill-rule:nonzero}
    .fil0 {fill:#3E4095}
    .fil2 {fill:#FEFEFE;fill-rule:nonzero}
    .fil1 {fill:#FEFEFE;fill-rule:nonzero}
    .fil3 {fill:#3E4095;fill-rule:nonzero}
   ]]>
  </style>
 </defs>
 <g id="Capa_x0020_1">
  <metadata id="CorelCorpID_0Corel-Layer"/>
  <g id="_305387928">
   <rect class="fil0" width="2555" height="122"/>
   <path class="fil1" d="M153 58l7 0c1,0 2,0 3,0 1,1 2,1 2,1 1,1 1,1 1,2 1,0 1,1 1,2 0,1 0,1 -1,2 0,1 -1,1 -2,2 2,0 2,1 3,1 1,1 1,2 1,3 0,1 0,2 -1,2 0,1 -1,2 -1,2 -1,1 -2,1 -3,1 0,0 -2,0 -4,0l-6 0 0 -18zm3 3l0 4 3 0c1,0 2,0 2,0 1,0 2,0 2,0 0,-1 0,-1 0,-2 0,0 0,-1 0,-1 0,0 -1,-1 -1,-1 -1,0 -2,0 -3,0l-3 0zm0 7l0 5 4 0c1,0 2,0 2,0 1,0 1,0 2,-1 0,0 0,-1 0,-1 0,-1 0,-1 0,-2 -1,0 -1,0 -1,0 -1,-1 -2,-1 -4,-1l-3 0z"/>
   <path class="fil1" d="M169 70c0,-2 0,-3 1,-4 0,-1 1,-2 2,-2 1,-1 2,-1 4,-1 2,0 3,1 4,2 2,1 2,3 2,5 0,2 0,3 -2,5 -1,1 -2,2 -4,2 -2,0 -3,-1 -4,-1 -1,-1 -2,-2 -2,-3 -1,-1 -1,-2 -1,-3zm3 0c0,1 1,2 1,3 1,0 2,1 3,1 1,0 1,-1 2,-1 0,-1 1,-2 1,-3 0,-2 -1,-3 -1,-3 -1,-1 -1,-1 -2,-1 -1,0 -2,0 -3,1 0,0 -1,1 -1,3z"/>
   <polygon class="fil1" points="184,58 187,58 187,76 184,76 "/>
   <path class="fil1" d="M190 58l3 0 0 3 -3 0 0 -3zm0 5l3 0 0 13 -3 0 0 -13z"/>
   <path class="fil1" d="M199 76l-5 -13 3 0 3 7 0 2c1,0 1,-1 1,-1 0,0 0,-1 0,-1l3 -7 3 0 -5 13 -3 0z"/>
   <path class="fil1" d="M211 67l-4 0c1,-2 1,-3 2,-3 1,-1 2,-1 4,-1 2,0 3,0 3,0 1,1 2,1 2,2 0,0 1,1 1,3l-1 4c0,1 1,2 1,2 0,1 0,2 0,2l-3 0c0,0 0,0 0,-1 -1,0 -1,0 -1,0 0,0 -1,1 -1,1 -1,0 -2,1 -3,1 -1,0 -2,-1 -3,-2 -1,0 -1,-1 -1,-2 0,-1 0,-2 1,-2 0,-1 0,-1 1,-2 1,0 2,0 3,0 1,-1 3,-1 3,-1l0 -1c0,0 0,-1 0,-1 -1,0 -1,0 -2,0 -1,0 -1,0 -2,0 0,0 0,1 0,1zm4 3c0,0 -1,0 -2,1 -1,0 -2,0 -2,0 0,0 0,1 0,1 0,1 0,1 0,2 0,0 1,0 1,0 1,0 2,0 2,-1 1,0 1,0 1,-1 0,0 0,-1 0,-1l0 -1z"/>
   <path class="fil1" d="M224 76l-3 0 0 -13 3 0 0 2c0,-1 1,-1 1,-2 1,0 1,0 2,0 0,0 1,0 2,1l-1 3c-1,-1 -1,-1 -2,-1 0,0 -1,0 -1,0 0,1 -1,1 -1,2 0,1 0,2 0,4l0 4z"/>
   <path class="fil1" d="M229 58l4 0 0 3 -4 0 0 -3zm0 5l4 0 0 13 -4 0 0 -13z"/>
   <path class="fil1" d="M238 67l-4 0c1,-2 1,-3 2,-3 1,-1 2,-1 4,-1 2,0 3,0 3,0 1,1 2,1 2,2 0,0 1,1 1,3l-1 4c0,1 1,2 1,2 0,1 0,2 0,2l-3 0c0,0 0,0 0,-1 -1,0 -1,0 -1,0 0,0 -1,1 -1,1 -1,0 -2,1 -3,1 -1,0 -2,-1 -3,-2 -1,0 -1,-1 -1,-2 0,-1 0,-2 1,-2 0,-1 0,-1 1,-2 1,0 2,0 3,0 1,-1 3,-1 3,-1l0 -1c0,0 0,-1 0,-1 -1,0 -1,0 -2,0 -1,0 -1,0 -2,0 0,0 0,1 0,1zm4 3c0,0 -1,0 -2,1 -1,0 -2,0 -2,0 0,0 0,1 0,1 0,1 0,1 0,2 0,0 1,0 1,0 1,0 2,0 2,-1 1,0 1,0 1,-1 0,0 0,-1 0,-1l0 -1z"/>
   <path class="fil1" d="M260 76l-4 0 0 -6c0,-2 0,-3 0,-3 0,-1 -1,-1 -1,-1 0,0 -1,0 -1,0 -1,0 -1,0 -2,0 0,0 0,1 -1,1 0,1 0,2 0,3l0 6 -3 0 0 -13 3 0 0 2c1,-1 2,-2 4,-2 1,0 2,0 2,0 1,1 1,1 2,1 0,1 0,1 0,2 0,0 1,1 1,2l0 8z"/>
   <path class="fil1" d="M261 70c0,-2 0,-3 1,-4 0,-1 1,-2 2,-2 1,-1 2,-1 4,-1 2,0 3,1 5,2 1,1 1,3 1,5 0,2 0,3 -2,5 -1,1 -2,2 -4,2 -1,0 -3,-1 -4,-1 -1,-1 -2,-2 -2,-3 -1,-1 -1,-2 -1,-3zm4 0c0,1 0,2 0,3 1,0 2,1 3,1 1,0 1,-1 2,-1 1,-1 1,-2 1,-3 0,-2 0,-3 -1,-3 -1,-1 -1,-1 -2,-1 -1,0 -2,0 -3,1 0,0 0,1 0,3z"/>
   <path class="fil1" d="M162 97l0 -2c-1,2 -2,2 -4,2 -1,0 -2,0 -2,-1 -1,0 -2,-1 -2,-2 -1,-1 -1,-2 -1,-4 0,-1 0,-2 1,-3 0,-1 1,-2 1,-3 1,0 2,0 3,0 1,0 2,0 2,0 1,0 2,1 2,1l0 -6 2 0 0 18 -2 0zm-7 -7c0,2 0,3 1,4 1,1 2,1 3,1 1,0 1,0 2,-1 1,-1 1,-2 1,-3 0,-2 0,-3 -1,-4 -1,-1 -1,-2 -2,-2 -1,0 -2,1 -3,2 -1,0 -1,2 -1,3z"/>
   <path class="fil1" d="M175 93l3 0c-1,1 -1,2 -2,3 -1,1 -3,1 -4,1 -2,0 -4,0 -5,-2 -1,-1 -1,-2 -1,-4 0,-3 0,-4 1,-6 1,-1 3,-1 5,-1 1,0 3,0 4,1 1,2 2,3 2,5 0,1 0,1 0,1l-10 0c0,1 0,2 1,3 1,1 2,1 3,1 1,0 1,0 2,0 0,-1 1,-1 1,-2zm-7 -4l7 0c0,-1 0,-2 -1,-2 0,-1 -1,-2 -2,-2 -1,0 -2,1 -3,1 -1,1 -1,2 -1,3z"/>
   <path class="fil1" d="M190 97l-7 -18 3 0 5 13c0,1 0,2 0,3 1,-1 1,-2 1,-3l5 -13 3 0 -7 18 -3 0z"/>
   <path class="fil1" d="M209 93l2 0c0,1 -1,2 -1,3 -1,1 -3,1 -4,1 -2,0 -4,0 -5,-2 -1,-1 -1,-2 -1,-4 0,-3 0,-4 1,-6 1,-1 3,-1 5,-1 1,0 3,0 4,1 1,2 2,3 2,5 0,1 0,1 0,1l-10 0c0,1 0,2 1,3 1,1 2,1 3,1 1,0 1,0 2,0 0,-1 1,-1 1,-2zm-7 -4l7 0c0,-1 0,-2 -1,-2 0,-1 -1,-2 -2,-2 -1,0 -2,1 -3,1 -1,1 -1,2 -1,3z"/>
   <path class="fil1" d="M213 97l0 -13 2 0 0 2c1,-2 2,-2 4,-2 1,0 2,0 2,0 1,0 1,1 2,1 0,1 0,1 0,2 1,0 1,1 1,2l0 8 -3 0 0 -8c0,-1 0,-2 0,-2 0,0 0,-1 -1,-1 0,0 -1,0 -1,0 -1,0 -2,0 -3,0 0,1 -1,2 -1,4l0 7 -2 0z"/>
   <path class="fil1" d="M235 93l2 0c0,1 -1,2 -2,3 -1,1 -2,1 -4,1 -2,0 -3,0 -4,-2 -1,-1 -2,-2 -2,-4 0,-3 1,-4 2,-6 1,-1 2,-1 4,-1 2,0 3,0 4,1 1,2 2,3 2,5 0,1 0,1 0,1l-10 0c0,1 1,2 2,3 0,1 1,1 2,1 1,0 2,0 2,0 1,-1 1,-1 2,-2zm-8 -4l8 0c0,-1 -1,-2 -1,-2 -1,-1 -2,-2 -3,-2 -1,0 -2,1 -2,1 -1,1 -2,2 -2,3z"/>
   <path class="fil1" d="M237 97l0 -2 9 -9c-1,0 -2,0 -3,0l-5 0 0 -2 10 0 0 1 -7 9 -1 1c1,0 2,0 3,0l6 0 0 2 -12 0z"/>
   <path class="fil1" d="M258 97l0 -2c-1,1 -2,2 -4,2 -1,0 -1,0 -2,0 -1,-1 -1,-1 -1,-1 -1,-1 -1,-1 -1,-2 0,0 0,-1 0,-2l0 -8 2 0 0 7c0,1 0,2 0,2 0,1 1,1 1,2 0,0 1,0 2,0 0,0 1,0 1,0 1,-1 1,-1 2,-2 0,0 0,-1 0,-2l0 -7 2 0 0 13 -2 0z"/>
   <path class="fil1" d="M271 93l3 0c-1,1 -1,2 -2,3 -1,1 -3,1 -4,1 -2,0 -3,0 -5,-2 -1,-1 -1,-2 -1,-4 0,-3 0,-4 1,-6 2,-1 3,-1 5,-1 2,0 3,0 4,1 1,2 2,3 2,5 0,1 0,1 0,1l-10 0c0,1 1,2 1,3 1,1 2,1 3,1 1,0 1,0 2,0 1,-1 1,-1 1,-2zm-7 -4l7 0c0,-1 0,-2 0,-2 -1,-1 -2,-2 -3,-2 -1,0 -2,1 -3,1 0,1 -1,2 -1,3z"/>
   <polygon class="fil1" points="275,79 277,79 277,97 275,97 "/>
   <path class="fil1" d="M288 95c-1,1 -2,1 -2,2 -1,0 -2,0 -3,0 -1,0 -2,0 -3,-1 -1,-1 -1,-1 -1,-3 0,0 0,-1 0,-1 1,-1 1,-1 1,-2 1,0 1,0 2,0 0,0 1,0 2,-1 2,0 3,0 4,0 0,-1 0,-1 0,-1 0,-1 0,-1 -1,-2 0,0 -1,-1 -2,-1 -1,0 -2,1 -3,1 0,0 0,1 -1,2l-2 0c0,-1 1,-2 1,-3 1,0 1,-1 2,-1 1,0 2,0 3,0 1,0 2,0 3,0 0,0 1,1 1,1 1,0 1,1 1,1 0,1 0,2 0,3l0 2c0,3 0,4 0,4 0,1 1,1 1,2l-3 0c0,-1 0,-1 0,-2zm0 -5c-1,1 -2,1 -4,1 -1,0 -1,0 -2,1 0,0 0,0 -1,0 0,1 0,1 0,1 0,1 0,1 1,2 0,0 1,0 2,0 1,0 1,0 2,0 1,0 1,-1 2,-2 0,0 0,-1 0,-2l0 -1z"/>
   <path class="fil1" d="M162 48l0 -2 7 0 0 7c-1,0 -2,1 -3,2 -1,0 -3,0 -4,0 -2,0 -3,0 -5,-1 -1,-1 -2,-2 -3,-3 -1,-1 -1,-3 -1,-5 0,-2 0,-3 1,-5 1,-1 2,-2 3,-3 1,-1 3,-1 5,-1 1,0 2,0 3,0 1,1 2,1 3,2 0,1 1,2 1,3l-2 1c0,-1 -1,-2 -1,-2 0,-1 -1,-1 -2,-2 0,0 -1,0 -2,0 -1,0 -2,0 -3,0 -1,1 -1,1 -2,2 0,0 -1,1 -1,1 0,2 -1,3 -1,4 0,2 1,3 1,4 1,1 1,2 3,2 1,1 2,1 3,1 1,0 2,0 3,0 1,-1 2,-1 2,-2l0 -3 -5 0z"/>
   <path class="fil1" d="M171 49c0,-3 0,-5 2,-6 1,-1 2,-1 4,-1 2,0 3,0 4,2 1,1 2,2 2,4 0,2 0,3 -1,4 0,1 -1,2 -2,3 -1,0 -2,0 -3,0 -2,0 -4,0 -5,-1 -1,-2 -1,-3 -1,-5zm2 0c0,1 0,2 1,3 1,1 2,2 3,2 1,0 2,-1 2,-2 1,-1 2,-2 2,-4 0,-1 -1,-2 -2,-3 0,-1 -1,-1 -2,-1 -1,0 -2,0 -3,1 -1,1 -1,2 -1,4z"/>
   <path class="fil1" d="M186 55l-2 0 0 -18 2 0 0 7c1,-2 2,-2 4,-2 1,0 1,0 2,0 1,1 1,1 2,2 0,0 1,1 1,2 0,1 0,1 0,2 0,3 0,4 -1,6 -1,1 -3,1 -4,1 -2,0 -3,0 -4,-2l0 2zm0 -7c0,2 0,3 1,4 0,1 1,2 3,2 1,0 1,-1 2,-2 1,-1 1,-2 1,-3 0,-2 0,-3 -1,-4 -1,-1 -1,-1 -2,-1 -1,0 -2,0 -3,1 0,1 -1,2 -1,3z"/>
   <path class="fil1" d="M197 37l2 0 0 3 -2 0 0 -3zm0 5l2 0 0 13 -2 0 0 -13z"/>
   <path class="fil1" d="M210 51l2 0c0,1 -1,2 -2,3 -1,1 -2,1 -3,1 -2,0 -4,0 -5,-1 -1,-2 -2,-3 -2,-5 0,-3 1,-4 2,-5 1,-2 3,-2 5,-2 1,0 3,0 4,2 1,1 1,2 1,5 0,0 0,0 0,0l-9 0c0,2 0,3 1,3 1,1 2,2 3,2 1,0 1,-1 2,-1 0,-1 1,-1 1,-2zm-7 -4l7 0c0,-1 0,-2 -1,-2 0,-1 -1,-1 -2,-1 -1,0 -2,0 -3,1 -1,0 -1,1 -1,2z"/>
   <path class="fil1" d="M214 55l0 -13 2 0 0 2c0,-1 1,-2 1,-2 1,0 1,0 2,0 0,0 1,0 2,0l-1 3c0,-1 -1,-1 -1,-1 -1,0 -1,0 -2,0 0,1 0,1 -1,2 0,0 0,1 0,2l0 7 -2 0z"/>
   <path class="fil1" d="M221 55l0 -13 2 0 0 2c1,-2 2,-2 4,-2 1,0 2,0 2,0 1,0 1,1 2,1 0,1 0,1 1,2 0,0 0,1 0,2l0 8 -3 0 0 -8c0,-1 0,-1 0,-2 0,0 0,-1 -1,-1 0,0 -1,0 -1,0 -1,0 -2,0 -3,1 0,0 -1,1 -1,3l0 7 -2 0z"/>
   <path class="fil1" d="M233 49c0,-3 1,-5 2,-6 1,-1 2,-1 4,-1 2,0 3,0 4,2 2,1 2,2 2,4 0,2 0,3 -1,4 0,1 -1,2 -2,3 -1,0 -2,0 -3,0 -2,0 -3,0 -4,-1 -1,-2 -2,-3 -2,-5zm2 0c0,1 1,2 1,3 1,1 2,2 3,2 1,0 2,-1 3,-2 1,-1 1,-2 1,-4 0,-1 0,-2 -1,-3 -1,-1 -2,-1 -3,-1 -1,0 -2,0 -3,1 0,1 -1,2 -1,4z"/>
   <path class="fil2" d="M146 33l0 25c-2,1 -4,3 -6,4 -7,5 -17,6 -22,7l-3 -18c5,-2 13,-4 21,-10 4,-3 7,-5 10,-8z"/>
   <path class="fil2" d="M114 46c-2,0 -17,0 -28,7 -10,7 -18,17 -20,19l0 -23c0,0 5,-9 18,-16 12,-6 27,-5 27,-5l3 18z"/>
   <path class="fil2" d="M67 97c0,0 8,-13 23,-24 12,-7 22,-9 27,-9l3 19c0,0 -8,-1 -14,3 -8,4 -15,11 -15,11l-24 0 0 0z"/>
   <path class="fil2" d="M146 33c-3,3 -6,5 -10,8 -8,6 -16,8 -21,10l-3 -19c0,0 6,-1 15,-7 13,-7 19,-17 19,-17l0 25z"/>
   <path class="fil2" d="M118 69c5,-1 15,-2 22,-7 2,-1 4,-3 6,-4l0 22c0,0 -4,2 -11,5 -7,3 -14,4 -14,4l-3 -20z"/>
   <path class="fil2" d="M66 72l0 25c0,0 13,-16 25,-24 12,-7 27,-9 27,-9l-4 -18c0,0 -14,-3 -29,7 -15,10 -19,19 -19,19z"/>
   <polygon class="fil3" points="128,59 128,57 125,57 127,55 127,53 129,54 131,53 130,55 132,57 129,57 "/>
   <polygon class="fil3" points="138,55 137,52 134,52 137,51 136,48 138,50 140,48 139,51 141,53 139,52 "/>
   <polygon class="fil3" points="77,78 74,78 73,80 72,77 69,77 72,76 71,73 73,75 76,73 74,76 "/>
   <polygon class="fil3" points="103,59 101,59 99,61 99,59 96,59 98,57 98,54 100,56 102,55 101,57 "/>
   <polygon class="fil3" points="93,64 91,64 90,66 89,63 86,63 89,62 88,59 90,61 92,60 91,62 "/>
   <polygon class="fil3" points="84,70 82,70 81,73 80,70 77,70 80,68 79,66 81,68 83,66 82,69 "/>
   <polygon class="fil3" points="114,57 111,57 110,60 109,57 106,57 109,55 108,53 110,54 113,53 112,56 "/>
   <polygon class="fil3" points="118,62 118,59 116,59 116,58 117,58 117,55 119,57 121,56 120,58 122,60 119,60 "/>
   <path class="fil4 str0" d="M147 32l-1 1c-3,3 -6,6 -10,9 -8,5 -15,8 -21,9l-1 -5c0,0 -14,-3 -29,7 -15,10 -19,19 -19,19l0 1m0 24c0,0 13,-16 25,-24 12,-8 27,-9 27,-9l0 5c6,-1 16,-2 23,-7 2,-1 4,-3 5,-4"/>
  </g>
 </g>
</svg>
